<svg xmlns="http://www.w3.org/2000/svg" version="1.1" xmlns:xlink="http://www.w3.org/1999/xlink" xmlns:svgjs="http://svgjs.dev/svgjs" width="100%" height="100%" viewBox="0 0 1000 600"><rect width="1000" height="600" x="0" y="0" fill="#533549"/><g><circle r="166.66666666666666" cx="309.5138804117838" cy="331.73609937823505" fill="#f6b042" transform="matrix(0.8750607888806892,0,0,0.8750607888806892,0,9.710736368951657)"/><path d="M263.1620811321017 391.52351600936356L263.1620811321017 391.52351600936356L251.35248216163095 279.8658920084365Q251.35248216163095 279.8658920084365 250.71220269937652 278.33633551527316Q250.07192323712206 276.8067790221097 250.3564918870129 274.245661173092Q250.60548945566742 271.68454332407424 253.27332054839425 268.8388568251656Q255.97672272235747 266.0287414074933 262.6285149135564 263.7166211271301L262.6285149135564 263.7166211271301Q271.5924273851185 260.40851057214877 283.7577371679529 258.238674616731Q295.92304695078724 256.0332675800768 309.61791322678494 257.0648289359312Q323.34835058401904 258.09639029178555 336.6519349664169 265.2817487015298L336.6519349664169 265.2817487015298Q344.58428608212466 269.37242304371097 348.4259628556513 277.05577659076425Q352.2676396291779 284.73913013781754 353.0502034163778 293.4540450407252Q353.79719612234135 302.1333888623965 353.15691666008684 310.1013110593406Q352.51663719783244 318.0336621750484 351.37836259826895 323.1558978730839Q350.2400879987056 328.27813357111944 350.2400879987056 328.27813357111944L350.2400879987056 328.27813357111944Q350.2400879987056 328.27813357111944 348.4259628556513 332.11981034464606Q346.6474087938334 335.9614871181727 341.631886339507 340.6924409226083Q336.6519349664169 345.4233947270439 327.1900273575457 348.23351014471615L327.1900273575457 348.23351014471615L363.5436723811033 387.43284166718246Q363.5436723811033 387.43284166718246 365.3222264429212 389.4959643788912Q367.1363515859755 391.52351600936356 368.274626185539 394.4759157519813Q369.44847186633876 397.42831549459896 367.7766310482299 400.38071523721663Q366.1047902301211 403.297543898598 359.2040004702677 405.36066661030674L359.2040004702677 405.36066661030674Q352.01864206052346 407.42378932201547 346.50512446888797 406.3922279661611Q340.9916068772525 405.36066661030674 337.54121199732583 403.04854632994346Q334.09081711739907 400.7364260495802 332.3122630555812 398.7088744191079Q330.498137912527 396.6457517073991 330.498137912527 396.6457517073991L330.498137912527 396.6457517073991L296.70561073798706 354.9208734171514L305.1359569910039 391.0255208720545Q305.1359569910039 391.0255208720545 305.66952320954925 393.1953568274724Q306.1675183468583 395.36519278289023 305.1359569910039 398.1753082005625Q304.13996671638586 401.0209946994711 300.0137212929684 403.1908306548889Q295.92304695078724 405.36066661030674 286.9591344792251 405.36066661030674L286.9591344792251 405.36066661030674Q277.9952220076629 405.36066661030674 273.01527063457286 403.297543898598Q267.99974818024634 401.2699922681256 265.97219654977397 398.4598768504533Q263.90907383806524 395.6141903515447 263.51779194446533 393.58663872107235Q263.1620811321017 391.52351600936356 263.1620811321017 391.52351600936356ZM287.49270069777043 279.616894439782L287.49270069777043 279.616894439782L293.61092667042396 331.0882489887917Q293.61092667042396 331.0882489887917 296.56332641304164 331.33724655744624Q299.51572615565937 331.5862441261007 303.74868482278595 330.8392514201372Q307.98164348991247 330.0566876329373 311.9300335071482 327.10428789031965Q315.9139946056203 324.1874592289383 318.47511245463807 317.89137785010297Q321.0362303036558 311.630867552504 320.25366651645595 300.6038323692331L320.25366651645595 300.6038323692331Q319.50667381049243 290.11036340450755 316.1629921742748 285.13041203141745Q312.81931053805715 280.11488957709105 307.98164348991247 278.727617408873Q303.1084053605315 277.30477415941874 297.7371720938415 277.9450536216732Q292.33036774591505 278.5853330839276 287.49270069777043 279.616894439782Z " fill="#533549" transform="matrix(0.8750607888806892,0,0,0.8750607888806892,0,9.710736368951657)"/><path d="M568.8471259431305 354.3075665947714L568.8471259431305 354.3075665947714L560.2982579103673 273.4795643211452Q560.2982579103673 273.4795643211452 559.8347650652175 272.3723314132873Q559.3712722200678 271.2650985054294 559.5772690401343 269.41112712483016Q559.7575162576925 267.5571557442309 561.6887364458169 265.497187543565Q563.6457062364493 263.4629689454075 568.4608819055059 261.7892447823665L568.4608819055059 261.7892447823665Q574.9497817376032 259.3945317490925 583.7561457954497 257.8238059960848Q592.5625098532962 256.22733064056877 602.4761068190005 256.9740691133101Q612.4154533872133 257.7208075860515 622.0458047253262 262.9222272927327L622.0458047253262 262.9222272927327Q627.7879660846822 265.88343158118994 630.5689231555812 271.44534572298767Q633.34988022648 277.0072598647855 633.9163714816631 283.31591247932465Q634.4571131343379 289.5988154913555 633.993620289188 295.3667264532199Q633.5301274440383 301.1088878125759 632.7061401637719 304.81683057377444Q631.8821528835056 308.52477333497296 631.8821528835056 308.52477333497296L631.8821528835056 308.52477333497296Q631.8821528835056 308.52477333497296 630.5689231555812 311.3057304058718Q629.281443030165 314.08668747677075 625.6507490764914 317.5113846103777Q622.0458047253262 320.9360817439847 615.1964104581123 322.9703003421422L615.1964104581123 322.9703003421422L641.5125042216184 351.34636230631423Q641.5125042216184 351.34636230631423 642.7999843470345 352.839839251797Q644.113214074959 354.3075665947714 644.9372013552254 356.4447836029622Q645.7869382380001 358.5820006111531 644.5767069201088 360.71921761934385Q643.3664756022176 362.83068502502636 638.3710527156029 364.3241619705091L638.3710527156029 364.3241619705091Q633.1696330089217 365.81763891599184 629.1784446201316 365.0709004432505Q625.1872562313415 364.3241619705091 622.6895447880343 362.6504378074681Q620.1918333447269 360.9767136444271 618.9043532193107 359.5089863014527Q617.5911234913863 358.0155093559699 617.5911234913863 358.0155093559699L617.5911234913863 358.0155093559699L593.1290011084793 327.81122561370694L599.2316569029518 353.9470721596549Q599.2316569029518 353.9470721596549 599.6179009405766 355.5177979126626Q599.9783953756933 357.0885236656703 599.2316569029518 359.12274226382783Q598.5106680327189 361.1827104644937 595.5237141417533 362.75343621750136Q592.5625098532962 364.3241619705091 586.0736100211988 364.3241619705091L586.0736100211988 364.3241619705091Q579.5847101891013 364.3241619705091 575.9797658379362 362.83068502502636Q572.3490718842626 361.36295768205196 570.8813445412882 359.3287390838944Q569.3878675958053 357.26877088322857 569.1046219682139 355.80104354025417Q568.8471259431305 354.3075665947714 568.8471259431305 354.3075665947714ZM586.4598540588236 273.299317103587L586.4598540588236 273.299317103587L590.8887856902552 310.55899193313047Q590.8887856902552 310.55899193313047 593.0260026984461 310.7392391506887Q595.1632197066368 310.919486368247 598.2274224051273 310.3787447155722Q601.2916251036177 309.8122534603891 604.1498309820415 307.6750364521983Q607.0337864629737 305.5635690465158 608.887757843573 301.0058894025426Q610.7417292241723 296.47395936107773 610.1752379689892 288.4915825834976L610.1752379689892 288.4915825834976Q609.6344963163144 280.8954498435423 607.2140336805321 277.29050549237706Q604.7935710447497 273.6598115387035 601.2916251036177 272.6555770408789Q597.7639295599774 271.62559294054597 593.8757395812206 272.0890857856958Q589.9617999999556 272.5525786308456 586.4598540588236 273.299317103587ZM691.209237062682 289.0580738386807L691.209237062682 289.0580738386807Q698.0586313298959 288.4915825834976 701.7665740910944 290.52580118165514Q705.4745168522929 292.58576938232096 706.2212553250343 292.94626381743745L706.2212553250343 292.94626381743745Q708.0752267056336 293.8732495077371 709.6459524586413 294.980482415595Q711.2166782116491 296.08771532345287 711.2166782116491 296.08771532345287L711.2166782116491 296.08771532345287Q711.2166782116491 296.08771532345287 713.9976352825479 297.01470101375253Q716.7785923534468 297.9416867040522 720.4865351146453 301.39213344016747Q724.1944778758439 304.81683057377444 727.3616789843676 312.05246887861324Q730.503130490383 319.26235758094367 731.0696217455661 331.6994155924637L731.0696217455661 331.6994155924637Q731.4301161806826 340.0422868051604 728.4689118922255 345.6814497544832Q725.5077076037684 351.34636230631423 720.5895335246786 354.9513066574795Q715.6713594455889 358.5820006111531 710.0064468937578 360.5132207992773Q704.3672839444351 362.4701905899098 699.2688626477872 363.2169290626512Q694.1704413511392 363.9636675353926 690.9259914350904 364.1439147529508Q687.6815415190417 364.3241619705091 687.6815415190417 364.3241619705091L687.6815415190417 364.3241619705091Q687.6815415190417 364.3241619705091 684.0508475653681 364.3241619705091Q680.4459032142029 364.3241619705091 675.0642362899633 363.1139306526179Q669.6825693657239 361.9036993347267 664.4039008515176 358.2987549835615Q659.1252323373113 354.69381063239626 655.7005352037045 347.6384195451157Q652.2758380700975 340.5830284578352 652.636332505214 328.91845852156484L652.636332505214 328.91845852156484Q652.9968269403305 317.22813898278616 656.9880153291206 309.7350046528641Q660.9792037179107 302.2161207204338 666.6441162697417 297.9416867040522Q672.2832792190645 293.69300229017887 677.9481917708956 291.8390309095796Q683.5873547202183 289.98505952898034 687.3982958914502 289.5215666838305Q691.209237062682 289.0580738386807 691.209237062682 289.0580738386807ZM691.930225932915 307.2115436070485L691.930225932915 307.2115436070485Q691.930225932915 307.2115436070485 689.612761707166 310.198497498014Q687.2952974814168 313.1597017864711 684.9778332556677 318.5413687107106Q682.6603690299187 323.89728603244185 682.6603690299187 331.1329243372806L682.6603690299187 331.1329243372806Q682.6603690299187 338.18831542456115 684.3340931929597 342.2567526208762Q686.0078173560007 346.35093941969956 687.9647871466333 348.10191239026557Q689.8960073347574 349.8528853608315 691.0032402426153 349.8528853608315L691.0032402426153 349.8528853608315Q692.1362227529816 349.8528853608315 694.6339341962889 348.8486508630069Q697.1316456395963 347.818666762674 699.1658642377538 344.1107240014755Q701.2000828359113 340.40278124027697 701.0198356183531 332.4461540652051L701.0198356183531 332.4461540652051Q700.8395884007948 325.7512574130411 699.6293570829037 321.68282021672604Q698.4191257650124 317.614383020411 696.4879055768882 314.3699331043623Q694.5309357862557 311.1254831883136 691.930225932915 307.2115436070485ZM800.3875516979718 322.04331465184254L800.3875516979718 322.04331465184254Q793.1776629956414 322.04331465184254 789.9332130795927 320.2923416812766Q786.688763163544 318.5413687107106 785.8390262807693 316.68739733011137Q785.015039000503 314.8334259495121 785.015039000503 314.266934694329L785.015039000503 314.266934694329Q785.015039000503 313.7004434391459 784.3712989377949 312.05246887861324Q783.7018092725785 310.3787447155722 782.234081929604 308.8080189625645Q780.7406049841213 307.2115436070485 778.3458919508473 307.2115436070485L778.3458919508473 307.2115436070485Q775.925429315065 307.0312963894902 773.7109634993491 310.55899193313047Q771.4707480811251 314.08668747677075 770.0030207381507 319.00486155586043Q768.5095437926678 323.89728603244185 768.1490493575513 328.35196726638173L768.1490493575513 328.35196726638173Q767.9430525374847 332.8066485003216 769.1532838553759 337.4415769518198Q770.3635151732672 342.076505403318 772.7839778090496 345.1407081018084Q775.1786908423236 348.2049108002988 778.5261391684056 348.3851580178571L778.5261391684056 348.3851580178571Q783.5215620550202 348.56540523541537 784.6287949628781 346.8144322648494Q785.7617774732444 345.0377096917751 785.7617774732444 345.0377096917751L785.7617774732444 345.0377096917751Q785.7617774732444 345.0377096917751 786.1222719083609 343.82747837388393Q786.4827663434775 342.6429966585011 788.2594889165517 341.1495197130183Q790.0104618871177 339.65604276753555 793.8986518658745 338.65180826971095Q797.8125914471397 337.62182416937804 805.0224801494701 337.80207138693635L805.0224801494701 337.80207138693635Q812.2581184543088 338.0080682070029 814.8588283076494 339.65604276753555Q817.4595381609901 341.32976693057657 817.536786968515 343.3639855287341Q817.6397853785484 345.42395372939995 816.7127996882488 346.8916810723744Q815.785813997949 348.3851580178571 815.785813997949 348.3851580178571L815.785813997949 348.3851580178571Q815.785813997949 348.3851580178571 813.1851041446085 350.7798710511311Q810.5843942912678 353.20033368691355 805.6919698146864 356.34178519292897Q800.7737957355968 359.5089863014527 793.7184046483162 361.9036993347267Q786.688763163544 364.3241619705091 777.5991534781059 364.3241619705091L777.5991534781059 364.3241619705091Q759.6001813247881 364.3241619705091 749.1458427064089 354.48781381232965Q738.6657544855215 344.6772152566586 737.91901601278 326.6782431033408L737.91901601278 326.6782431033408Q737.5585215776636 317.7946302379693 741.0604675187955 310.7392391506887Q744.5881630624358 303.70959766591653 750.5363212418583 298.79142358682685Q756.4587298187727 293.8732495077371 763.6943681236115 291.1952908468715Q770.9300064284503 288.4915825834976 777.7794006956642 288.1310881483811L777.7794006956642 288.1310881483811Q784.8347917829448 287.7448441107562 791.1176947949756 290.0623083365053Q797.4263474095147 292.37977256225435 802.5247687061627 296.2937121435195Q807.6231900028107 300.18190212227626 810.7903911113344 304.4305865361496Q813.9318426173498 308.7050205525312 814.2923370524665 312.41296331372973L814.2923370524665 312.41296331372973Q814.6785810900913 315.94065885737 812.7216112994587 317.9748774555275Q810.7903911113344 320.009096053685 807.9064356304021 320.8588329364597Q805.0224801494701 321.68282021672604 802.8080143337543 321.86306743428435Q800.5935485180385 322.04331465184254 800.3875516979718 322.04331465184254ZM834.8920190591249 354.48781381232965L834.8920190591249 354.48781381232965Q834.8920190591249 354.48781381232965 834.5057750215 350.88286946116443Q834.1452805863835 347.2779251099992 833.3985421136421 341.4327653406099Q832.6518036409008 335.58760557122054 831.6475691430761 328.91845852156484Q830.6175850427431 322.24931147190915 829.330104917327 316.01790766489495Q828.0168751894026 309.8122534603891 826.5491478464281 305.35757222644924L826.5491478464281 305.35757222644924Q824.6951764658289 299.7956580846514 825.982656591245 296.93745220622753Q827.2701367166612 294.05349672529536 829.9738449800351 292.94626381743745Q832.6518036409008 291.8390309095796 834.9692678666498 291.7360324995463Q837.2867320923989 291.65878369202136 837.2867320923989 291.65878369202136L837.2867320923989 291.65878369202136Q837.2867320923989 291.65878369202136 839.8874419457395 291.55578528198805Q842.4881517990801 291.45278687195474 846.0158473427203 292.1995253446961Q849.5177932838524 292.94626381743745 852.5047471748179 295.16072963315327Q855.465951463275 297.4009450513774 856.2126899360163 302.2161207204338L856.2126899360163 302.2161207204338Q857.3199228438742 308.52477333497296 857.6804172789908 310.198497498014Q858.0666613166156 311.8464720585466 858.1439101241407 311.3829792133968Q858.2469085341739 310.919486368247 858.2469085341739 310.919486368247L858.2469085341739 310.919486368247L879.1813353734406 291.8390309095796Q879.1813353734406 291.8390309095796 881.3185523816313 290.2683051565719Q883.4557693898222 288.6718298010558 888.1936962513536 287.8478425207895Q892.9058735103769 287.0238552405232 900.5020062503321 289.23832105623893L900.5020062503321 289.23832105623893Q905.8836731745716 290.7317980017217 906.7334100573463 293.12651103499576Q907.5573973376127 295.54697367077813 906.1669188021632 297.58119226893564Q904.7764402667137 299.61541086709315 903.8494545764141 300.5423965573928L903.8494545764141 300.5423965573928Q903.282963321231 301.1088878125759 900.5020062503321 303.78684647344147Q897.7210491794332 306.49055473681545 893.9358576107096 310.09549908798067Q890.1249164394779 313.7004434391459 886.4169736782793 317.22813898278616Q882.7090309170809 320.75583452642644 880.3143178838068 323.1762971622088Q877.8938552480244 325.57101019548287 877.8938552480244 325.57101019548287L877.8938552480244 325.57101019548287L907.737644555171 346.35093941969956Q907.737644555171 346.35093941969956 909.5143671282452 347.741417955149Q911.2653400988112 349.1318964905985 912.7588170442939 351.34636230631423Q914.2265443872683 353.56082812203005 913.7630515421185 356.0842891678457Q913.2995586969687 358.5820006111531 908.6646302454704 360.79646642686885L908.6646302454704 360.79646642686885Q904.0297017939723 363.0366818450929 899.6780189700658 362.5731889999431Q895.3263361461592 362.1096961547933 891.9016390125522 360.4359719917523Q888.4511922764369 358.76224782871134 886.4169736782793 357.26877088322857Q884.3827550801219 355.80104354025417 884.3827550801219 355.80104354025417L884.3827550801219 355.80104354025417L863.2423314207887 341.1495197130183L864.5555611487131 356.34178519292897Q864.5555611487131 356.34178519292897 864.1693171110882 358.2987549835615Q863.8088226759717 360.25572477419405 860.9248671950395 362.28994337235156Q858.0666613166156 364.3241619705091 850.8310230117769 364.3241619705091L850.8310230117769 364.3241619705091Q843.595384706938 364.3241619705091 840.247936380856 361.82645052720176Q836.9262376572824 359.3287390838944 835.8962535569494 356.9082764481121Q834.8920190591249 354.48781381232965 834.8920190591249 354.48781381232965ZM933.1525022308858 351.91285356149734L933.1525022308858 351.91285356149734Q933.1525022308858 351.7068567414308 931.7620236954364 349.5953893357483Q930.3715451599868 347.45817232755746 928.5175737793876 342.35975103090954Q926.6636023987884 337.26132973426155 924.9898782357474 328.0687216387902Q923.3161540727064 318.9018631458272 922.3891683824068 304.81683057377444L922.3891683824068 304.81683057377444Q922.0286739472901 297.4009450513774 924.5263853905975 294.23374394285366Q927.024096833905 291.0922924368382 930.9122868126617 290.2683051565719Q934.8004767914184 289.41856827379723 938.3281723350586 289.41856827379723L938.3281723350586 289.41856827379723Q938.3281723350586 289.41856827379723 940.4653893432495 289.34131946627224Q942.6026063514404 289.23832105623893 945.3835634223393 289.7018139013888Q948.1645204932381 290.1653067465386 950.301737501429 292.12227653717116Q952.4132049071114 294.05349672529536 952.6192017271782 298.14768352411875L952.6192017271782 298.14768352411875Q952.7994489447364 301.4693822476924 952.9796961622945 307.2115436070485Q953.1599433798527 312.97945456891284 953.6234362250026 319.5456032085352Q954.0869290701525 326.137501450666 955.1941619780104 332.2401572451385Q956.3271444883766 338.3685626421194 958.0781174589425 342.35975103090954Q959.8290904295085 346.35093941969956 962.6100475004074 346.7114338548161L962.6100475004074 346.7114338548161Q965.3910045713063 347.0719282899326 966.317990261606 343.4669839387674Q967.2449759519055 339.86203958760217 966.9874799268223 334.3001254458044Q966.7042342992307 328.7382113040066 965.8544974164562 323.0732987521755Q965.0305101361897 317.4083862003444 964.2837716634484 313.52019622158764Q963.537033190707 309.63200624283087 963.537033190707 309.63200624283087L963.537033190707 309.63200624283087Q963.537033190707 309.63200624283087 962.8160443204739 307.31454201708175Q962.0693058477326 304.9970777913327 962.2495530652908 302.0358735028755Q962.4298002828492 299.0746692144184 964.8502629186315 296.654206578636Q967.2449759519055 294.23374394285366 973.3733813488865 294.05349672529536L973.3733813488865 294.05349672529536Q981.716252561583 293.69300229017887 985.8876881679315 295.7272208883364Q990.0591237742798 297.7614394864939 991.6298495272874 300.9286405950176Q993.2005752802952 304.070092101033 993.5868193179201 307.41754042711506L993.5868193179201 307.41754042711506Q993.9473137530366 309.2715118077143 994.9772978533696 316.22390448496157Q995.981532351194 323.1762971622088 997.2947620791186 332.52340287273006Q998.5822422045347 341.8962581857597 999.3289806772761 351.8098551514641Q1000.0757191500176 361.72345211716845 999.8954719324591 369.88607611230685Q999.6894751123926 378.0487001074453 997.6552565142351 382.29738452131863L997.6552565142351 382.29738452131863Q994.5138050082197 389.1725283910409 989.0291396739469 395.0176881604302Q983.5702239421825 400.83709832731125 974.5836126667776 404.08154824336Q965.5970013913728 407.3259981594087 951.6922160368784 406.6050092891756L951.6922160368784 406.6050092891756Q941.289376623516 406.0385180339925 935.006473611485 403.36055937312693Q928.6978209969458 400.65685110975295 925.5306198884222 397.59264841126253Q922.3891683824068 394.5541953152804 921.3591842820738 392.23673108953136Q920.3549497842492 389.9192668637823 920.3549497842492 389.9192668637823L920.3549497842492 389.9192668637823Q920.3549497842492 389.9192668637823 919.7112097215412 387.8592986631164Q919.0417200563247 385.82508006495885 919.5052129014745 383.1471214040933Q919.9687057466243 380.4434131407194 922.9556596375899 378.5121929525951Q925.916863926047 376.5552231619626 933.332749448444 376.73547037952085L933.332749448444 376.73547037952085Q940.7486349708411 376.9414671995874 944.0703336944148 378.12594891497025Q947.4177820204967 379.33618023286147 948.3447677107964 380.8296571783442Q949.271753401096 382.29738452131863 948.9885077735045 383.43036703168485Q948.7052621459129 384.53759993954276 948.7052621459129 384.53759993954276L948.7052621459129 384.53759993954276Q948.7052621459129 384.53759993954276 948.7052621459129 386.57181853770027Q948.7052621459129 388.6060371358578 950.0957406813624 390.46000851645704Q951.4862192168118 392.3139798970563 955.1941619780104 392.13373267949805L955.1941619780104 392.13373267949805Q959.1081015592755 391.7732382443815 963.537033190707 388.7090355458911Q967.9917144246468 385.64483284740066 970.3091786503959 379.5164274504197Q972.6266428761451 373.4137716559472 969.8456858052463 364.3241619705091L969.8456858052463 364.3241619705091Q969.8456858052463 364.3241619705091 966.317990261606 364.89065322569223Q962.8160443204739 365.43139487836703 957.1511317686428 364.9679020332172Q951.4862192168118 364.50440918806737 945.1003177947476 361.6462033096435Q938.7144163726836 358.76224782871134 933.1525022308858 351.91285356149734Z " fill="#f6b042" transform="matrix(0.8750607888806892,0,0,0.8750607888806892,0,9.710736368951657)"/></g></svg>